<?xml version="1.0" encoding="UTF-8" standalone="no"?>
<svg
   width="126.91914"
   height="126.92832"
   version="1.1"
   id="svg10"
   xmlns="http://www.w3.org/2000/svg"
   xmlns:svg="http://www.w3.org/2000/svg">
  <defs
     id="defs14">
    <filter
       style="color-interpolation-filters:sRGB"
       id="filter4796"
       x="-0.054755837"
       y="-0.056734931"
       width="1.1095117"
       height="1.11347">
      <feColorMatrix
         type="hueRotate"
         values="119"
         result="color1"
         id="feColorMatrix4792" />
      <feColorMatrix
         type="saturate"
         values="0.9"
         result="color2"
         id="feColorMatrix4794" />
    </filter>
    <filter
       style="color-interpolation-filters:sRGB"
       id="filter4802"
       x="-0.046458252"
       y="-0.0278474"
       width="1.0805063"
       height="1.0551822">
      <feColorMatrix
         type="hueRotate"
         values="119"
         result="color1"
         id="feColorMatrix4798" />
      <feColorMatrix
         type="saturate"
         values="0.9"
         result="color2"
         id="feColorMatrix4800" />
    </filter>
    <filter
       style="color-interpolation-filters:sRGB"
       id="filter4808"
       x="-0.012106681"
       y="-0.012187253"
       width="1.0244182"
       height="1.024291">
      <feColorMatrix
         type="hueRotate"
         values="119"
         result="color1"
         id="feColorMatrix4804" />
      <feColorMatrix
         type="saturate"
         values="0.9"
         result="color2"
         id="feColorMatrix4806" />
    </filter>
    <filter
       style="color-interpolation-filters:sRGB"
       id="filter4814"
       x="0"
       y="-4.3022235e-09"
       width="1"
       height="1">
      <feColorMatrix
         type="hueRotate"
         values="119"
         result="color1"
         id="feColorMatrix4810" />
      <feColorMatrix
         type="saturate"
         values="0.9"
         result="color2"
         id="feColorMatrix4812" />
    </filter>
    <filter
       style="color-interpolation-filters:sRGB"
       id="filter4820"
       x="-5.5399944e-08"
       y="-5.7708334e-08"
       width="1.0000001"
       height="1.0000001">
      <feColorMatrix
         type="hueRotate"
         values="119"
         result="color1"
         id="feColorMatrix4816" />
      <feColorMatrix
         type="saturate"
         values="0.9"
         result="color2"
         id="feColorMatrix4818" />
    </filter>
    <filter
       style="color-interpolation-filters:sRGB"
       id="filter4826"
       x="-1.3644793e-08"
       y="-3.5352776e-09"
       width="1"
       height="1">
      <feColorMatrix
         type="hueRotate"
         values="119"
         result="color1"
         id="feColorMatrix4822" />
      <feColorMatrix
         type="saturate"
         values="0.9"
         result="color2"
         id="feColorMatrix4824" />
    </filter>
  </defs>
  <path
     style="fill:#b2b2ff;fill-opacity:1;stroke:#82be6f;stroke-width:0;filter:url(#filter4826)"
     d="m 58.931814,75.350426 c 0.103,-3.50102 0.41134,-4.8505 1.63264,-7.1455 1.12294,-2.11014 2.76693,-4.03662 5.7014,-6.68107 5.56612,-5.016 6.82649,-6.41786 7.97656,-8.87199 2.45286,-5.23416 0.5451,-10.67331 -4.62281,-13.17996 -1.72316,-0.8358 -3.4212,-1.19988 -5.59068,-1.19872 -2.92414,0.002 -5.88445,0.87531 -8.94326,2.63963 -0.80729,0.46565 -1.4924,0.81999 -1.52246,0.78743 -0.41997,-0.45498 -4.84331,-6.04289 -4.89959,-6.18955 -0.0968,-0.25234 2.78832,-2.16328 4.72931,-3.13238 1.90055,-0.9489 4.76758,-1.89325 7.02589,-2.31419 2.41619,-0.45036 7.09151,-0.45336 9.34475,-0.006 7.94914,1.57826 13.57063,6.34004 15.11421,12.80274 0.7433,3.11212 0.63408,6.41639 -0.31171,9.42998 -1.24007,3.95122 -3.05799,6.26895 -9.3148,11.87574 -3.43797,3.0808 -5.06902,4.98276 -6.06925,7.07733 -0.86649,1.81452 -1.05135,2.59969 -1.20406,5.11403 l -0.12244,2.01593 h -4.50633 -4.50632 z"
     id="path1143" />
  <path
     style="fill:#b2b2ff;fill-opacity:1;stroke:#82be6f;stroke-width:0;filter:url(#filter4820)"
     d="m 58.884514,94.619376 v -4.33213 h 4.51264 4.51264 v 4.33213 4.33213 h -4.51264 -4.51264 z"
     id="path1145" />
  <path
     style="fill:#b2b2ff;fill-opacity:1;stroke:#82be6f;stroke-width:0;filter:url(#filter4814)"
     d="m 59.967554,121.32427 c -7.48169,-0.4536 -14.72735,-2.3126 -21.41233,-5.49371 C 22.100544,108.00045 10.131372,92.783096 6.5363575,75.122446 4.4185595,64.718686 5.0946255,54.271736 8.5267205,44.366266 16.628864,20.982436 38.632644,5.2890145 63.342194,5.2710555 c 15.58691,-0.01133 30.23834,6.1010115 41.301346,17.2302605 17.40757,17.5118 21.80263,44.16383 10.93192,66.29219 -3.13888,6.3895 -6.75232,11.350574 -11.86877,16.295224 -10.186966,9.8449 -22.846406,15.37816 -37.150696,16.23801 -3.31809,0.19945 -3.25766,0.19947 -6.58844,-0.002 z m 11.19133,-26.795144 v -7.49098 h -7.76173 -7.76173 v 7.49098 7.490974 h 7.76173 7.76173 z m 0,-16.11731 c 0,-3.51359 0.19177,-4.67138 1.02831,-6.20839 0.79329,-1.45752 2.38491,-3.18434 5.41353,-5.87336 6.55311,-5.81832 9.01653,-9.19309 10.27731,-14.0794 0.56668,-2.19621 0.77121,-6.07389 0.44135,-8.36715 -1.19857,-8.33257 -7.72188,-14.64636 -17.36257,-16.8049 -1.66478,-0.37275 -2.32667,-0.41874 -5.93511,-0.41248 -3.49891,0.006 -4.31505,0.0623 -5.8931,0.4058 -5.15272,1.12167 -10.24978,3.67977 -13.56681,6.80887 l -1.34255,1.26649 4.46367,5.54912 4.46367,5.54911 0.83828,-0.69181 c 1.93807,-1.59942 4.41915,-2.95718 6.70471,-3.66913 1.91825,-0.59753 4.80829,-0.59811 6.54357,-10e-4 2.24446,0.77192 4.01158,2.45916 4.66162,4.4509 0.35288,1.08124 0.2688,3.07127 -0.18003,4.26088 -0.8094,2.14531 -2.00785,3.53034 -6.77405,7.82863 -5.20181,4.69114 -7.19329,7.37119 -8.45339,11.37619 -0.63372,2.01415 -0.85077,4.11954 -0.85136,8.25812 l -5.1e-4,3.56494 h 7.76173 7.76173 z"
     id="path1147" />
  <path
     style="fill:#3f44b2;fill-opacity:1;stroke:#3f44b2;stroke-width:3;stroke-dasharray:none;stroke-opacity:1;filter:url(#filter4808)"
     d="m 59.120734,125.28501 c -16.01639,-1.08402 -31.37226,-8.66316 -42.00041,-20.73 -4.07258,-4.623874 -6.86419,-8.841674 -9.5627935,-14.448274 -5.741977,-11.92949 -7.46148904,-25.45898 -4.903203,-38.57946 1.913583,-9.81404 6.222284,-19.0612 12.5869865,-27.01369 1.93516,-2.41791 7.1371,-7.590185 9.61341,-9.558587 8.8952,-7.0707325 19.25402,-11.4562705 30.7807,-13.0313996 2.88137,-0.393742 9.78786,-0.545415 12.81588,-0.281449 11.97114,1.0435731 22.85353,5.1569151 32.166756,12.1584406 13.83144,10.398235 22.42474,25.421065 24.54673,42.912645 0.30496,2.51381 0.30547,10.72149 9e-4,13.1769 -1.20021,9.67339 -3.87058,17.60761 -8.53559,25.36101 -12.07293,20.065474 -34.183526,31.612594 -57.509366,30.033864 z m 8.5183,-3.86192 c 4.31202,-0.23474 10.50717,-1.48834 14.84669,-3.00423 8.44495,-2.95002 15.80718,-7.58591 22.159626,-13.9536 9.4624,-9.485104 15.12402,-21.344864 16.72093,-35.026394 0.33167,-2.84164 0.28131,-9.88783 -0.0923,-12.90613 -1.24905,-10.09222 -4.89768,-19.42329 -10.71089,-27.39225 -6.41312,-8.79133 -15.289316,-15.765634 -25.144326,-19.7566955 -17.15928,-6.949127 -36.7527,-5.359524 -52.41866,4.2526975 -7.11773,4.367248 -13.49332,10.509638 -18.1073,17.444978 -11.0856665,16.66305 -12.8228185,37.81953 -4.616814,56.22744 1.653052,3.70816 3.822964,7.35175 6.557444,11.01083 10.31937,13.808664 26.30096,22.328014 43.49508,23.186014 2.56454,0.12798 3.67135,0.11546 7.31047,-0.0827 z"
     id="path1360" />
  <path
     style="fill:#3f44b2;fill-opacity:1;stroke:#3f44b2;stroke-width:3;stroke-dasharray:none;stroke-opacity:1;filter:url(#filter4802)"
     d="m 55.718264,77.606736 c 0.13701,-4.55911 0.40319,-6.51807 1.17186,-8.62426 1.22142,-3.3468 2.58899,-5.14195 7.4215,-9.74194 7.1628,-6.81817 7.79416,-7.71497 7.8154,-11.10131 0.0126,-2.00795 -0.38746,-2.95813 -1.86268,-4.42404 -1.79074,-1.77943 -3.90633,-2.47256 -7.01354,-2.29786 -3.07921,0.17313 -6.35063,1.65844 -9.89846,4.49415 -0.14365,0.11481 -1.55298,-1.50885 -4.59107,-5.28924 l -4.3838,-5.45491 1.31304,-1.22997 c 3.46343,-3.2443 9.2537,-6.04456 14.26372,-6.89813 1.99511,-0.33991 7.52988,-0.39567 9.67396,-0.0975 2.06825,0.28767 4.80276,1.15441 7.08186,2.24469 6.06812,2.90288 9.81875,7.36949 11.26036,13.40992 0.33006,1.38299 0.36463,1.96192 0.2879,4.82083 -0.0725,2.70118 -0.16349,3.53863 -0.53951,4.96597 -1.19401,4.53235 -3.38031,7.58486 -9.46282,13.21199 -5.26015,4.86633 -6.41998,6.31102 -6.89697,8.59085 -0.11007,0.5261 -0.20013,2.41464 -0.20013,4.19676 v 3.24021 h -7.78065 -7.78066 z m 12.26662,-0.27076 c 0.37856,-3.88734 0.4356,-4.16818 1.15292,-5.67644 1.20096,-2.52518 2.23413,-3.73639 6.72148,-7.87975 5.62411,-5.19298 7.43562,-7.49587 8.61941,-10.95743 1.36105,-3.9799 1.19649,-9.00182 -0.41433,-12.64418 -1.81729,-4.10922 -5.93553,-7.61693 -10.89244,-9.27765 -2.46219,-0.82491 -4.04487,-1.10345 -6.88668,-1.21203 -5.98238,-0.22856 -10.98603,1.14423 -15.89572,4.3611 -0.9866,0.64643 -1.79381,1.26557 -1.79381,1.37586 0,0.28398 4.74296,6.28994 4.9741,6.29865 0.10488,0.004 1.12023,-0.47254 2.25631,-1.05886 3.64107,-1.87912 6.84553,-2.59009 9.86375,-2.18844 2.95031,0.39262 4.81232,1.28641 6.73706,3.23391 2.01816,2.04203 2.69017,3.64463 2.69866,6.43572 0.006,1.8136 -0.3431,3.17488 -1.26868,4.95397 -1.02882,1.97751 -2.18423,3.29153 -6.05603,6.88732 -5.25555,4.8809 -6.4989,6.33744 -7.74085,9.06813 -0.93026,2.04539 -1.00852,2.5081 -1.26293,7.46785 l -0.0949,1.85018 h 4.5908 4.59081 z"
     id="path1416" />
  <path
     style="fill:#3f44b2;fill-opacity:1;stroke:#3f44b2;stroke-width:1.7;stroke-dasharray:none;stroke-opacity:1;filter:url(#filter4796)"
     d="m 55.635424,94.529126 v -7.49098 h 7.76173 7.76173 v 7.49098 7.490974 h -7.76173 -7.76173 z m 12.27437,0.0902 v -4.33213 h -4.51264 -4.51264 v 4.33213 4.33213 h 4.51264 4.51264 z"
     id="path1418" />
</svg>
